<?xml version="1.0" encoding="UTF-8" standalone="no"?>
<!DOCTYPE svg PUBLIC "-//W3C//DTD SVG 1.1//EN" "http://www.w3.org/Graphics/SVG/1.1/DTD/svg11.dtd">
<svg version="1.1" xmlns="http://www.w3.org/2000/svg" xmlns:xlink="http://www.w3.org/1999/xlink" preserveAspectRatio="xMidYMid meet" viewBox="0 0 40 40" width="40" height="40"><defs><path d="M16.35 8.17L16.38 8.18L16.41 8.19L16.44 8.2L16.47 8.22L16.5 8.24L16.52 8.26L16.55 8.28L16.57 8.31L16.59 8.34L16.6 8.36L16.62 8.39L16.63 8.43L16.63 8.46L16.64 8.49L16.64 8.53L16.64 39.72L16.64 39.75L16.63 39.79L16.63 39.82L16.62 39.85L16.6 39.88L16.59 39.91L16.57 39.94L16.55 39.96L16.52 39.99L16.5 40.01L16.47 40.03L16.44 40.04L16.41 40.06L16.38 40.07L16.35 40.07L16.31 40.08L16.28 40.08L2.23 40.08L2.14 40.08L2.05 40.07L1.97 40.06L1.88 40.04L1.79 40.02L1.71 40L1.62 39.97L1.54 39.94L1.46 39.9L1.38 39.86L1.3 39.82L1.23 39.77L1.16 39.72L1.09 39.66L1.02 39.6L0.96 39.54L0.9 39.47L0.85 39.42L0.8 39.36L0.76 39.29L0.72 39.23L0.68 39.17L0.65 39.1L0.62 39.03L0.6 38.97L0.58 38.9L0.56 38.83L0.55 38.76L0.53 38.69L0.53 38.62L0.52 38.55L0.52 38.48L0.53 38.4L0.54 38.33L4.07 12.57L4.14 12.12L4.25 11.69L4.39 11.28L4.55 10.88L4.74 10.51L4.95 10.16L5.18 9.84L5.44 9.54L5.72 9.26L6.01 9.02L6.33 8.8L6.66 8.61L7 8.45L7.36 8.33L7.74 8.24L8.12 8.18L8.52 8.17L16.28 8.17L16.31 8.17L16.35 8.17ZM8.09 9.13L7.7 9.38L7.32 9.62L6.98 9.86L6.65 10.1L6.36 10.34L6.09 10.58L5.84 10.81L5.62 11.05L5.42 11.28L5.25 11.52L5.11 11.75L4.99 11.98L4.89 12.21L4.82 12.44L4.78 12.67L1.25 38.43L1.25 38.48L1.25 38.52L1.25 38.57L1.25 38.61L1.26 38.65L1.27 38.69L1.28 38.73L1.29 38.77L1.31 38.8L1.33 38.83L1.34 38.87L1.36 38.9L1.38 38.92L1.4 38.95L1.42 38.98L1.44 39L1.48 39.04L1.52 39.08L1.56 39.12L1.6 39.15L1.65 39.18L1.7 39.21L1.75 39.24L1.8 39.26L1.85 39.28L1.9 39.3L1.96 39.32L2.01 39.33L2.07 39.34L2.12 39.35L2.18 39.36L2.23 39.36L15.92 39.36L15.92 8.89L8.52 8.89L8.09 9.13Z" id="c1afWxb8d"></path><path d="M37.02 8.27L37.44 8.4L37.83 8.57L38.21 8.78L38.55 9.04L38.87 9.33L39.15 9.65L39.4 10L39.61 10.39L39.77 10.79L39.9 11.22L39.97 11.66L40 12.13L40 13.54L39.97 14L39.9 14.44L39.77 14.87L39.61 15.28L39.4 15.66L39.15 16.01L38.87 16.34L38.55 16.63L38.21 16.88L37.83 17.09L37.44 17.27L37.02 17.39L36.59 17.47L36.14 17.5L32.72 17.5L32.68 17.5L32.64 17.49L32.6 17.48L32.56 17.46L32.53 17.44L32.5 17.42L32.47 17.39L32.44 17.36L32.42 17.33L32.4 17.3L32.38 17.26L32.37 17.22L32.36 17.18L32.36 17.14L32.36 14.95L32.34 14.65L32.29 14.35L32.21 14.07L32.1 13.81L31.96 13.55L31.79 13.32L31.6 13.11L31.39 12.92L31.15 12.75L30.9 12.61L30.64 12.5L30.35 12.41L30.06 12.36L29.76 12.35L27.08 12.35L26.77 12.36L26.48 12.41L26.2 12.5L25.93 12.61L25.68 12.75L25.45 12.92L25.24 13.11L25.05 13.32L24.88 13.55L24.74 13.81L24.63 14.07L24.54 14.35L24.49 14.65L24.47 14.95L24.47 17.14L24.47 17.18L24.46 17.22L24.45 17.26L24.44 17.3L24.42 17.33L24.39 17.36L24.37 17.39L24.34 17.42L24.31 17.44L24.27 17.46L24.23 17.48L24.2 17.49L24.15 17.5L24.11 17.5L16.28 17.5L16.24 17.5L16.2 17.49L16.16 17.48L16.12 17.46L16.09 17.44L16.05 17.42L16.02 17.39L16 17.36L15.97 17.33L15.95 17.3L15.94 17.26L15.93 17.22L15.92 17.18L15.92 17.14L15.92 8.53L15.92 8.48L15.93 8.44L15.94 8.4L15.95 8.37L15.97 8.33L16 8.3L16.02 8.27L16.05 8.25L16.09 8.22L16.12 8.2L16.16 8.19L16.2 8.18L16.24 8.17L16.28 8.17L36.14 8.17L36.59 8.19L37.02 8.27ZM16.64 16.78L23.75 16.78L23.75 14.95L23.78 14.53L23.85 14.13L23.98 13.75L24.14 13.39L24.35 13.05L24.59 12.74L24.87 12.46L25.18 12.22L25.52 12.01L25.88 11.85L26.26 11.73L26.66 11.65L27.08 11.62L29.76 11.62L30.18 11.65L30.58 11.73L30.96 11.85L31.32 12.01L31.66 12.22L31.97 12.46L32.24 12.74L32.49 13.05L32.69 13.39L32.86 13.75L32.98 14.13L33.06 14.53L33.08 14.95L33.08 16.78L36.14 16.78L36.53 16.75L36.91 16.68L37.27 16.56L37.61 16.4L37.93 16.19L38.22 15.96L38.48 15.69L38.71 15.39L38.91 15.06L39.07 14.71L39.18 14.33L39.25 13.94L39.28 13.54L39.28 12.13L39.25 11.72L39.18 11.33L39.07 10.96L38.91 10.6L38.71 10.28L38.48 9.98L38.22 9.71L37.93 9.47L37.61 9.27L37.27 9.11L36.91 8.99L36.53 8.91L36.14 8.89L16.64 8.89L16.64 16.78Z" id="agWYyIOug"></path><path d="M31.72 12.27L32.44 12.99L32.91 13.9L33.08 14.95L33.08 18.34L33.07 18.45L33.01 18.55L32.94 18.63L32.84 18.68L32.72 18.7L24.11 18.7L24 18.68L23.9 18.63L23.82 18.55L23.77 18.45L23.75 18.34L23.75 14.95L23.92 13.9L24.39 12.99L25.11 12.27L26.03 11.79L27.08 11.62L29.76 11.62L30.81 11.79L31.72 12.27ZM26.06 12.55L25.24 13.11L24.68 13.94L24.47 14.95L24.47 17.98L32.36 17.98L32.36 14.95L32.16 13.94L31.6 13.11L30.77 12.55L29.76 12.35L27.08 12.35L26.06 12.55Z" id="adwFvz6p7"></path><path d="M16.33 40.08L16.35 40.07L16.37 40.07L16.39 40.06L16.4 40.06L16.42 40.05L16.44 40.05L16.45 40.04L16.47 40.03L16.48 40.02L16.5 40.01L16.51 40L16.52 39.99L16.53 39.98L16.55 39.96L16.56 39.95L16.57 39.94L16.58 39.92L16.59 39.91L16.6 39.89L16.61 39.88L16.61 39.86L16.62 39.84L16.62 39.83L16.63 39.81L16.63 39.79L16.64 39.77L16.64 39.76L16.64 39.74L16.64 39.72L16.64 39.72L16.64 39.36L39.2 39.36L39.2 40.08L16.28 40.08L16.28 40.08L16.3 40.08L16.32 40.08L16.33 40.08Z" id="c5dqUyPYGf"></path><path d="M17.48 17.14C17.48 16.28 17.48 9.39 17.48 8.53C17.48 8.33 17.64 8.17 17.84 8.17C18.04 8.17 18.2 8.33 18.2 8.53C18.2 9.39 18.2 16.28 18.2 17.14C18.2 17.34 18.04 17.5 17.84 17.5C17.64 17.5 17.48 17.34 17.48 17.14Z" id="d1hSljWAW4"></path><path d="M14.76 8.16L14.78 8.16L14.8 8.17L14.82 8.17L14.83 8.18L14.85 8.18L14.87 8.19L14.88 8.2L14.9 8.21L14.91 8.21L14.93 8.22L14.94 8.23L14.96 8.24L14.97 8.26L14.98 8.27L14.99 8.28L15.01 8.29L15.02 8.31L15.03 8.32L15.04 8.34L15.04 8.35L15.05 8.37L15.06 8.38L15.07 8.4L15.07 8.42L15.08 8.44L15.08 8.45L15.08 8.47L15.09 8.49L15.09 8.51L15.09 8.53L14.37 8.53L14.37 8.51L14.37 8.49L14.37 8.47L14.37 8.45L14.38 8.44L14.38 8.42L14.39 8.4L14.39 8.38L14.4 8.37L14.41 8.35L14.42 8.34L14.43 8.32L14.44 8.31L14.45 8.29L14.46 8.28L14.47 8.27L14.48 8.26L14.5 8.24L14.51 8.23L14.52 8.22L14.54 8.21L14.56 8.21L14.57 8.2L14.59 8.19L14.6 8.18L14.62 8.18L14.64 8.17L14.65 8.17L14.67 8.16L14.69 8.16L14.71 8.16L14.73 8.16L14.75 8.16L14.76 8.16Z" id="a4oK35Pn2r"></path><path d="M11.49 30.59L12.34 31.85L12.65 33.39L12.34 34.93L11.49 36.19L10.23 37.03L8.69 37.35L7.15 37.03L5.89 36.19L5.04 34.93L4.73 33.39L5.04 31.85L5.89 30.59L7.15 29.74L8.69 29.43L10.23 29.74L11.49 30.59ZM6.4 31.1L5.71 32.13L5.45 33.39L5.71 34.65L6.4 35.67L7.43 36.37L8.69 36.62L9.95 36.37L10.98 35.67L11.67 34.65L11.93 33.39L11.67 32.13L10.98 31.1L9.95 30.4L8.69 30.15L7.43 30.4L6.4 31.1Z" id="aUUbGROnK"></path><path d="M10.01 32.06L10.42 32.66L10.56 33.39L10.42 34.11L10.01 34.71L9.42 35.11L8.69 35.26L7.96 35.11L7.37 34.71L6.96 34.11L6.82 33.39L6.96 32.66L7.37 32.06L7.96 31.66L8.69 31.51L9.42 31.66L10.01 32.06ZM7.88 32.57L7.63 32.94L7.54 33.39L7.63 33.83L7.88 34.2L8.24 34.45L8.69 34.54L9.14 34.45L9.5 34.2L9.75 33.83L9.84 33.39L9.75 32.94L9.5 32.57L9.14 32.32L8.69 32.23L8.24 32.32L7.88 32.57Z" id="f1wwRptjPt"></path><path d="M12.69 15.76L12.95 16.15L13.04 16.62L12.95 17.09L12.69 17.47L12.3 17.73L11.83 17.83L10.14 17.83L9.67 17.73L9.29 17.47L9.03 17.09L8.93 16.62L9.03 16.15L9.29 15.76L9.67 15.51L10.14 15.41L11.83 15.41L12.3 15.51L12.69 15.76ZM9.93 16.24L9.78 16.36L9.68 16.49L9.65 16.62L9.69 16.81L9.8 16.96L9.95 17.07L10.14 17.1L11.83 17.1L12.02 17.07L12.18 16.96L12.28 16.81L12.32 16.62L12.28 16.43L12.18 16.27L12.02 16.17L11.83 16.13L10.14 16.13L9.93 16.24Z" id="a38Wtixfyo"></path><path d="M12.69 18.54L12.95 18.92L13.04 19.39L12.95 19.86L12.69 20.25L12.3 20.5L11.83 20.6L10.14 20.6L9.67 20.5L9.29 20.25L9.03 19.86L8.93 19.39L9.03 18.92L9.29 18.54L9.67 18.28L10.14 18.18L11.83 18.18L12.3 18.28L12.69 18.54ZM9.93 19.02L9.78 19.14L9.68 19.26L9.65 19.39L9.69 19.58L9.8 19.74L9.95 19.84L10.14 19.88L11.83 19.88L12.02 19.84L12.18 19.74L12.28 19.58L12.32 19.39L12.28 19.2L12.18 19.05L12.02 18.94L11.83 18.91L10.14 18.91L9.93 19.02Z" id="d1wNJN8CqI"></path><path d="M12.69 21.31L12.95 21.7L13.04 22.17L12.95 22.64L12.69 23.02L12.3 23.28L11.83 23.37L10.14 23.37L9.67 23.28L9.29 23.02L9.03 22.64L8.93 22.17L9.03 21.7L9.29 21.31L9.67 21.05L10.14 20.96L11.83 20.96L12.3 21.05L12.69 21.31ZM9.93 21.79L9.78 21.91L9.68 22.03L9.65 22.17L9.69 22.35L9.8 22.51L9.95 22.61L10.14 22.65L11.83 22.65L12.02 22.61L12.18 22.51L12.28 22.35L12.32 22.17L12.28 21.98L12.18 21.82L12.02 21.72L11.83 21.68L10.14 21.68L9.93 21.79Z" id="k3dpEWriwq"></path><path d="M12.69 24.09L12.95 24.47L13.04 24.94L12.95 25.41L12.69 25.79L12.3 26.05L11.83 26.15L10.14 26.15L9.67 26.05L9.29 25.79L9.03 25.41L8.93 24.94L9.03 24.47L9.29 24.09L9.67 23.83L10.14 23.73L11.83 23.73L12.3 23.83L12.69 24.09ZM9.93 24.57L9.78 24.68L9.68 24.81L9.65 24.94L9.69 25.13L9.8 25.28L9.95 25.39L10.14 25.43L11.83 25.43L12.02 25.39L12.18 25.28L12.28 25.13L12.32 24.94L12.28 24.75L12.18 24.6L12.02 24.49L11.83 24.45L10.14 24.45L9.93 24.57Z" id="blEClIweU"></path><path d="M39.38 21.6L39.47 21.63L39.55 21.67L39.62 21.72L39.69 21.78L39.75 21.85L39.8 21.93L39.84 22.02L39.88 22.11L39.91 22.2L39.92 22.3L39.93 22.41L39.93 23.21L39.92 23.31L39.91 23.41L39.88 23.51L39.84 23.6L39.8 23.68L39.75 23.76L39.69 23.83L39.62 23.89L39.55 23.94L39.47 23.98L39.38 24.01L39.3 24.03L39.21 24.04L38.94 24.04L38.94 29.84L38.89 30.69L38.72 31.51L38.46 32.29L38.1 33.03L37.65 33.71L37.12 34.34L36.52 34.91L35.85 35.41L35.13 35.83L34.34 36.17L33.52 36.42L32.65 36.57L31.75 36.62L25.09 36.62L24.19 36.57L23.32 36.42L22.49 36.17L21.71 35.83L20.98 35.41L20.31 34.91L19.71 34.34L19.19 33.71L18.74 33.03L18.38 32.29L18.11 31.51L17.95 30.69L17.89 29.84L17.89 24.04L17.7 24.04L17.61 24.03L17.52 24.01L17.44 23.98L17.36 23.94L17.29 23.89L17.22 23.83L17.16 23.76L17.11 23.68L17.06 23.6L17.03 23.51L17 23.41L16.98 23.31L16.98 23.21L16.98 22.41L16.98 22.3L17 22.2L17.03 22.11L17.06 22.02L17.11 21.93L17.16 21.85L17.22 21.78L17.29 21.72L17.36 21.67L17.44 21.63L17.52 21.6L17.61 21.58L17.7 21.57L39.21 21.57L39.3 21.58L39.38 21.6ZM17.73 22.3L17.72 22.31L17.72 22.31L17.72 22.32L17.71 22.33L17.71 22.34L17.71 22.35L17.7 22.36L17.7 22.37L17.7 22.38L17.7 22.39L17.7 22.41L17.7 23.21L17.7 23.22L17.7 23.23L17.7 23.24L17.7 23.26L17.71 23.27L17.71 23.28L17.71 23.28L17.72 23.29L17.72 23.3L17.72 23.31L17.73 23.31L17.73 23.32L18.26 23.32L18.3 23.32L18.35 23.33L18.4 23.34L18.44 23.37L18.48 23.39L18.51 23.42L18.54 23.46L18.57 23.49L18.59 23.54L18.6 23.58L18.61 23.63L18.62 23.68L18.62 29.84L18.68 30.66L18.85 31.45L19.13 32.2L19.5 32.9L19.97 33.54L20.51 34.12L21.14 34.64L21.82 35.07L22.57 35.42L23.37 35.68L24.21 35.85L25.09 35.9L31.75 35.9L32.62 35.85L33.47 35.68L34.26 35.42L35.01 35.07L35.7 34.64L36.32 34.12L36.87 33.54L37.33 32.9L37.71 32.2L37.99 31.45L38.16 30.66L38.22 29.84L38.22 23.68L38.22 23.63L38.23 23.58L38.25 23.54L38.27 23.49L38.29 23.46L38.33 23.42L38.36 23.39L38.4 23.37L38.44 23.34L38.48 23.33L38.53 23.32L38.58 23.32L39.18 23.32L39.18 23.31L39.18 23.31L39.19 23.3L39.19 23.29L39.19 23.28L39.2 23.28L39.2 23.27L39.2 23.26L39.2 23.24L39.21 23.23L39.21 23.22L39.21 23.21L39.21 22.41L39.21 22.39L39.21 22.38L39.2 22.37L39.2 22.36L39.2 22.35L39.2 22.34L39.19 22.33L39.19 22.32L39.19 22.31L39.18 22.31L39.18 22.3L39.18 22.3L17.73 22.3L17.73 22.3Z" id="bqKQVg6l9"></path><path d="M29.08 18.08L29.16 18.2L29.18 18.34L29.18 21.94L29.16 22.08L29.08 22.19L28.96 22.27L28.82 22.3L28.01 22.3L27.87 22.27L27.76 22.19L27.68 22.08L27.65 21.94L27.65 18.34L27.68 18.2L27.76 18.08L27.87 18L28.01 17.98L28.82 17.98L28.96 18L29.08 18.08ZM28.37 21.57L28.46 21.57L28.46 18.7L28.37 18.7L28.37 21.57Z" id="d1oaoZLKJI"></path></defs><g><g><g><use xlink:href="#c1afWxb8d" opacity="1" fill="#231f20" fill-opacity="1"></use><g><use xlink:href="#c1afWxb8d" opacity="1" fill-opacity="0" stroke="#000000" stroke-width="1" stroke-opacity="0"></use></g></g><g><use xlink:href="#agWYyIOug" opacity="1" fill="#231f20" fill-opacity="1"></use><g><use xlink:href="#agWYyIOug" opacity="1" fill-opacity="0" stroke="#000000" stroke-width="1" stroke-opacity="0"></use></g></g><g><use xlink:href="#adwFvz6p7" opacity="1" fill="#231f20" fill-opacity="1"></use><g><use xlink:href="#adwFvz6p7" opacity="1" fill-opacity="0" stroke="#000000" stroke-width="1" stroke-opacity="0"></use></g></g><g><use xlink:href="#c5dqUyPYGf" opacity="1" fill="#231f20" fill-opacity="1"></use><g><use xlink:href="#c5dqUyPYGf" opacity="1" fill-opacity="0" stroke="#000000" stroke-width="1" stroke-opacity="0"></use></g></g><g><use xlink:href="#d1hSljWAW4" opacity="1" fill="#231f20" fill-opacity="1"></use><g><use xlink:href="#d1hSljWAW4" opacity="1" fill-opacity="0" stroke="#000000" stroke-width="1" stroke-opacity="0"></use></g></g><g><use xlink:href="#a4oK35Pn2r" opacity="1" fill="#231f20" fill-opacity="1"></use><g><use xlink:href="#a4oK35Pn2r" opacity="1" fill-opacity="0" stroke="#000000" stroke-width="1" stroke-opacity="0"></use></g></g><g><use xlink:href="#aUUbGROnK" opacity="1" fill="#231f20" fill-opacity="1"></use><g><use xlink:href="#aUUbGROnK" opacity="1" fill-opacity="0" stroke="#000000" stroke-width="1" stroke-opacity="0"></use></g></g><g><use xlink:href="#f1wwRptjPt" opacity="1" fill="#231f20" fill-opacity="1"></use><g><use xlink:href="#f1wwRptjPt" opacity="1" fill-opacity="0" stroke="#000000" stroke-width="1" stroke-opacity="0"></use></g></g><g><use xlink:href="#a38Wtixfyo" opacity="1" fill="#231f20" fill-opacity="1"></use><g><use xlink:href="#a38Wtixfyo" opacity="1" fill-opacity="0" stroke="#000000" stroke-width="1" stroke-opacity="0"></use></g></g><g><use xlink:href="#d1wNJN8CqI" opacity="1" fill="#231f20" fill-opacity="1"></use><g><use xlink:href="#d1wNJN8CqI" opacity="1" fill-opacity="0" stroke="#000000" stroke-width="1" stroke-opacity="0"></use></g></g><g><use xlink:href="#k3dpEWriwq" opacity="1" fill="#231f20" fill-opacity="1"></use><g><use xlink:href="#k3dpEWriwq" opacity="1" fill-opacity="0" stroke="#000000" stroke-width="1" stroke-opacity="0"></use></g></g><g><use xlink:href="#blEClIweU" opacity="1" fill="#231f20" fill-opacity="1"></use><g><use xlink:href="#blEClIweU" opacity="1" fill-opacity="0" stroke="#000000" stroke-width="1" stroke-opacity="0"></use></g></g><g><use xlink:href="#bqKQVg6l9" opacity="1" fill="#231f20" fill-opacity="1"></use><g><use xlink:href="#bqKQVg6l9" opacity="1" fill-opacity="0" stroke="#000000" stroke-width="1" stroke-opacity="0"></use></g></g><g><use xlink:href="#d1oaoZLKJI" opacity="1" fill="#231f20" fill-opacity="1"></use><g><use xlink:href="#d1oaoZLKJI" opacity="1" fill-opacity="0" stroke="#000000" stroke-width="1" stroke-opacity="0"></use></g></g></g></g></svg>