<?xml version="1.0" encoding="UTF-8" standalone="no"?>
<!DOCTYPE svg PUBLIC "-//W3C//DTD SVG 1.1//EN" "http://www.w3.org/Graphics/SVG/1.1/DTD/svg11.dtd">
<svg version="1.1" xmlns="http://www.w3.org/2000/svg" xmlns:xlink="http://www.w3.org/1999/xlink" preserveAspectRatio="xMidYMid meet" viewBox="0 0 300 300" width="300" height="300"><defs><path d="M121.2 31.69C136.65 76.45 40.17 72.96 40.17 123.86C40.17 124.79 40.21 125.71 40.24 126.63C50.38 131.76 54.87 144.4 65.96 146.58C91.85 151.91 80.2 123.73 100.91 122.21C119.04 121.44 112.57 144.29 128.1 145.81C142.34 146.58 142.34 119.16 166.94 126.01C173.41 128.3 170.82 137.44 177.29 139.72C192.83 145.81 191.53 138.2 198 132.87C218.69 115.2 225.62 125.66 233.5 135.26C233.99 131.52 234.27 127.72 234.27 123.86C234.27 58.15 95.89 -41.67 121.2 31.69" id="aMmplf79V"></path><path d="M198 132.87C191.53 138.2 192.83 145.81 177.29 139.72C170.82 137.44 173.41 128.3 166.94 126.01C142.34 119.16 142.34 146.58 128.1 145.81C112.57 144.29 119.04 121.44 100.91 122.21C80.2 123.73 91.85 151.91 65.96 146.58C54.88 144.4 50.38 131.76 40.24 126.63C41.79 176.25 84.6 216.03 137.22 216.03C186.75 216.03 227.59 180.78 233.51 135.26C225.62 125.66 218.69 115.2 198 132.87" id="b59CU9fwWV"></path><path d="M227.59 168.18L184.57 168.18L172.9 277.96L207 277.96" id="aeEmYlhek"></path><path d="M49.12 168.18L72.01 277.96L102.68 277.96L91.01 168.18" id="aBP1IpDNg"></path><path d="M91.01 168.18L102.68 277.96L136.47 277.96L136.47 168.18" id="g519NxwB0"></path><path d="M136.47 168.18L136.47 277.96L172.9 277.96L184.57 168.18" id="e1YTypUvfh"></path><path d="M167.69 75.22C167.69 92.2 153.92 100.3 136.94 100.3C119.95 100.3 106.18 92.2 106.18 75.22C106.18 58.23 119.95 44.46 136.94 44.46C153.92 44.46 167.69 58.23 167.69 75.22" id="eSHQp9vBS"></path></defs><g><g><g><use xlink:href="#aMmplf79V" opacity="1" fill="#f28ba3" fill-opacity="1"></use><g><use xlink:href="#aMmplf79V" opacity="1" fill-opacity="0" stroke="#000000" stroke-width="1" stroke-opacity="0"></use></g></g><g><use xlink:href="#b59CU9fwWV" opacity="1" fill="#e87090" fill-opacity="1"></use><g><use xlink:href="#b59CU9fwWV" opacity="1" fill-opacity="0" stroke="#000000" stroke-width="1" stroke-opacity="0"></use></g></g><g><use xlink:href="#aeEmYlhek" opacity="1" fill="#adaaaa" fill-opacity="1"></use><g><use xlink:href="#aeEmYlhek" opacity="1" fill-opacity="0" stroke="#000000" stroke-width="1" stroke-opacity="0"></use></g></g><g><use xlink:href="#aBP1IpDNg" opacity="1" fill="#e3e3e3" fill-opacity="1"></use><g><use xlink:href="#aBP1IpDNg" opacity="1" fill-opacity="0" stroke="#000000" stroke-width="1" stroke-opacity="0"></use></g></g><g><use xlink:href="#g519NxwB0" opacity="1" fill="#adaaaa" fill-opacity="1"></use><g><use xlink:href="#g519NxwB0" opacity="1" fill-opacity="0" stroke="#000000" stroke-width="1" stroke-opacity="0"></use></g></g><g><use xlink:href="#e1YTypUvfh" opacity="1" fill="#e3e3e3" fill-opacity="1"></use><g><use xlink:href="#e1YTypUvfh" opacity="1" fill-opacity="0" stroke="#000000" stroke-width="1" stroke-opacity="0"></use></g></g><g><use xlink:href="#eSHQp9vBS" opacity="1" fill="#513117" fill-opacity="1"></use><g><use xlink:href="#eSHQp9vBS" opacity="1" fill-opacity="0" stroke="#000000" stroke-width="1" stroke-opacity="0"></use></g></g></g></g></svg>