<?xml version="1.0" encoding="UTF-8" standalone="no"?>
<!DOCTYPE svg PUBLIC "-//W3C//DTD SVG 1.1//EN" "http://www.w3.org/Graphics/SVG/1.1/DTD/svg11.dtd">
<svg version="1.1" xmlns="http://www.w3.org/2000/svg" xmlns:xlink="http://www.w3.org/1999/xlink" preserveAspectRatio="xMidYMid meet" viewBox="0 0 160 160" width="160" height="160"><defs><path d="M81.09 24.96C88.71 47.02 41.17 45.3 41.17 70.38C41.17 70.84 41.19 71.29 41.2 71.74C46.2 74.27 48.41 80.5 53.88 81.57C66.63 84.2 60.89 70.32 71.1 69.56C80.03 69.19 76.84 80.45 84.49 81.2C91.51 81.57 91.51 68.06 103.63 71.44C106.82 72.57 105.54 77.07 108.73 78.19C116.39 81.2 115.75 77.45 118.94 74.82C129.13 66.11 132.55 71.27 136.43 76C136.67 74.15 136.81 72.28 136.81 70.38C136.81 38 68.62 -11.19 81.09 24.96" id="bGf9PgcX2"></path><path d="M118.94 74.82C115.75 77.45 116.39 81.2 108.73 78.19C105.54 77.07 106.82 72.57 103.63 71.44C91.51 68.06 91.51 81.57 84.49 81.2C76.84 80.45 80.03 69.19 71.1 69.56C60.89 70.32 66.63 84.2 53.88 81.57C48.41 80.5 46.2 74.27 41.2 71.74C41.96 96.19 63.06 115.79 88.99 115.79C113.39 115.79 133.52 98.43 136.43 76C132.55 71.27 129.13 66.11 118.94 74.82" id="ccyBgGtTm"></path><path d="M133.52 92.22L112.32 92.22L106.57 146.31L123.37 146.31" id="b1ncts51m1"></path><path d="M45.58 92.22L56.86 146.31L71.97 146.31L66.22 92.22" id="cnRdd2wNE"></path><path d="M66.22 92.22L71.97 146.31L88.62 146.31L88.62 92.22" id="abEtWLCvx"></path><path d="M88.62 92.22L88.62 146.31L106.57 146.31L112.32 92.22" id="aVI4BUtrG"></path><path d="M104 46.41C104 54.78 97.22 58.77 88.85 58.77C80.48 58.77 73.69 54.78 73.69 46.41C73.69 38.04 80.48 31.25 88.85 31.25C97.22 31.25 104 38.04 104 46.41" id="dzD8eu69q"></path></defs><g><g><g><use xlink:href="#bGf9PgcX2" opacity="1" fill="#f28ba3" fill-opacity="1"></use><g><use xlink:href="#bGf9PgcX2" opacity="1" fill-opacity="0" stroke="#000000" stroke-width="1" stroke-opacity="0"></use></g></g><g><use xlink:href="#ccyBgGtTm" opacity="1" fill="#e87090" fill-opacity="1"></use><g><use xlink:href="#ccyBgGtTm" opacity="1" fill-opacity="0" stroke="#000000" stroke-width="1" stroke-opacity="0"></use></g></g><g><use xlink:href="#b1ncts51m1" opacity="1" fill="#adaaaa" fill-opacity="1"></use><g><use xlink:href="#b1ncts51m1" opacity="1" fill-opacity="0" stroke="#000000" stroke-width="1" stroke-opacity="0"></use></g></g><g><use xlink:href="#cnRdd2wNE" opacity="1" fill="#e3e3e3" fill-opacity="1"></use><g><use xlink:href="#cnRdd2wNE" opacity="1" fill-opacity="0" stroke="#000000" stroke-width="1" stroke-opacity="0"></use></g></g><g><use xlink:href="#abEtWLCvx" opacity="1" fill="#adaaaa" fill-opacity="1"></use><g><use xlink:href="#abEtWLCvx" opacity="1" fill-opacity="0" stroke="#000000" stroke-width="1" stroke-opacity="0"></use></g></g><g><use xlink:href="#aVI4BUtrG" opacity="1" fill="#e3e3e3" fill-opacity="1"></use><g><use xlink:href="#aVI4BUtrG" opacity="1" fill-opacity="0" stroke="#000000" stroke-width="1" stroke-opacity="0"></use></g></g><g><use xlink:href="#dzD8eu69q" opacity="1" fill="#513117" fill-opacity="1"></use><g><use xlink:href="#dzD8eu69q" opacity="1" fill-opacity="0" stroke="#000000" stroke-width="1" stroke-opacity="0"></use></g></g></g></g></svg>